<?xml version="1.0" standalone="no"?>
<!DOCTYPE svg PUBLIC "-//W3C//DTD SVG 20010904//EN"
 "http://www.w3.org/TR/2001/REC-SVG-20010904/DTD/svg10.dtd">
<svg version="1.0" xmlns="http://www.w3.org/2000/svg"
 width="917.000000pt" height="917.000000pt" viewBox="0 0 917.000000 917.000000"
 preserveAspectRatio="xMidYMid meet">
<metadata>
Created by potrace 1.11, written by Peter Selinger 2001-2013
</metadata>
<g transform="translate(0.000000,917.000000) scale(0.100000,-0.100000)"
fill="#000000" stroke="none">
<path d="M1125 9155 c-419 -76 -762 -321 -965 -690 -52 -94 -96 -207 -128
-329 l-26 -101 -4 -627 c-1 -346 0 -628 3 -628 8 0 2159 -73 3085 -105 1147
-39 1383 -51 1750 -90 617 -66 1171 -212 1563 -412 229 -117 413 -278 518
-453 l38 -65 93 -24 c143 -37 478 -147 632 -208 613 -242 1018 -519 1230 -842
161 -245 225 -423 245 -676 5 -55 9 837 10 1981 1 2304 5 2154 -64 2361 -146
438 -495 761 -955 887 l-115 31 -3420 2 c-2743 1 -3434 -1 -3490 -12z"/>
<path d="M0 6070 l0 -120 73 0 c39 0 677 18 1417 40 740 22 1379 40 1420 41
50 0 68 3 55 9 -16 7 -2844 151 -2937 150 l-28 0 0 -120z"/>
<path d="M5040 5884 c-129 -8 -387 -36 -500 -55 -161 -27 -341 -69 -335 -79 2
-4 31 -11 62 -14 99 -12 346 -64 434 -92 178 -56 321 -145 496 -309 l102 -96
-6 83 c-13 183 73 336 233 415 64 31 88 37 160 41 68 4 97 0 154 -18 39 -12
72 -25 74 -29 2 -3 -30 -6 -72 -6 -60 -1 -86 -6 -119 -23 -107 -56 -163 -142
-163 -250 0 -84 14 -129 59 -188 54 -72 133 -109 225 -108 120 1 204 53 255
156 35 69 41 52 16 -45 -19 -74 -47 -128 -92 -178 -20 -22 -34 -42 -31 -45 10
-9 165 53 222 90 57 36 86 64 252 236 59 63 114 109 159 135 l69 40 -84 7
c-135 12 -201 33 -378 122 -232 117 -370 160 -601 192 -105 14 -467 25 -591
18z m984 -374 c40 -36 52 -76 36 -125 -29 -87 -129 -114 -195 -52 -45 40 -55
89 -30 141 34 72 128 90 189 36z"/>
<path d="M1500 5274 c-789 -12 -1450 -23 -1467 -23 l-33 -1 0 -135 0 -134 28
4 c15 3 704 70 1532 150 828 80 1519 149 1535 154 39 12 93 12 -1595 -15z"/>
<path d="M1627 4425 c-890 -67 -1620 -125 -1623 -127 -2 -3 -3 -70 -2 -149 l3
-145 1632 266 c1390 226 1742 286 1627 279 -10 -1 -747 -57 -1637 -124z"/>
<path d="M1700 3566 l-1695 -222 -3 -167 c-1 -92 1 -167 4 -167 14 0 3449 772
3453 776 11 10 -163 -11 -1759 -220z"/>
<path d="M9162 3708 c-4 -52 -70 -294 -101 -374 -41 -107 -119 -235 -207 -342
-105 -128 -179 -160 -255 -109 -44 29 -65 74 -80 167 -14 92 -49 161 -103 201
-52 38 -201 86 -330 105 -138 22 -515 14 -751 -15 -744 -92 -1755 -331 -3113
-737 -779 -232 -1560 -488 -2827 -924 -444 -152 -1378 -489 -1389 -500 -11
-11 26 -177 61 -275 143 -397 480 -722 881 -849 190 -60 -54 -56 3637 -56
3744 0 3452 -5 3662 65 209 70 366 168 528 330 162 162 260 319 330 528 68
202 65 146 63 1547 -2 696 -4 1253 -6 1238z"/>
<path d="M3560 3025 c-36 -7 -851 -156 -1812 -331 l-1748 -318 0 -189 c0 -175
1 -188 18 -183 9 3 825 233 1812 512 987 279 1799 511 1805 516 11 10 8 10
-75 -7z"/>
</g>
</svg>
