<?xml version="1.0" encoding="utf-8"?>
<!-- Generator: Adobe Illustrator 22.1.0, SVG Export Plug-In . SVG Version: 6.00 Build 0)  -->
<svg version="1.1" id="Layer_1" xmlns="http://www.w3.org/2000/svg" xmlns:xlink="http://www.w3.org/1999/xlink" x="0px" y="0px"
	 viewBox="0 0 680.4 221.3" style="enable-background:new 0 0 680.4 221.3;" xml:space="preserve">
<style type="text/css">
	.st0{fill:#174275;}
	.st1{fill:#C1272D;}
</style>
<path class="st0" d="M289.1,21.8c-1.6-1.9-3.5-3.3-5.7-4.4c-2.3-1-4.9-1.5-7.8-1.5c-3,0-5.7,0.6-8.2,1.7s-4.7,2.8-6.6,4.8
	c-1.9,2.1-3.3,4.5-4.4,7.3c-1,2.8-1.6,5.9-1.6,9.2c0,3.4,0.5,6.5,1.6,9.3c1,2.8,2.5,5.2,4.3,7.3s4,3.7,6.4,4.8
	c2.5,1.1,5.1,1.7,7.9,1.7c3.2,0,6.1-0.7,8.6-2s4.6-3.2,6.2-5.7l13.2,9.8c-3,4.3-6.9,7.4-11.5,9.4c-4.7,2-9.4,3-14.4,3
	c-5.6,0-10.8-0.9-15.5-2.6c-4.7-1.8-8.8-4.3-12.2-7.5c-3.4-3.3-6.1-7.2-8-11.9s-2.9-9.9-2.9-15.6s1-10.9,2.9-15.6s4.6-8.6,8-11.9
	s7.5-5.8,12.2-7.5c4.7-1.8,9.9-2.6,15.5-2.6c2,0,4.1,0.2,6.3,0.6c2.2,0.4,4.4,1,6.5,1.8s4.2,1.9,6.1,3.2c2,1.4,3.7,3,5.3,5
	L289.1,21.8z"/>
<path class="st0" d="M309.9,3.1h15.8v71.7h-15.8V3.1z"/>
<path class="st0" d="M352.5,17.1h-20.4v-14h56.7v14h-20.4v57.7h-15.8V17.1H352.5z"/>
<path class="st0" d="M418.7,44.2L391.8,3.1h19.6L426.6,30l16.1-26.8h18.7l-26.9,41.1v30.6h-15.8L418.7,44.2L418.7,44.2z"/>
<path class="st0" d="M526.5,69.8c-4.7,2.4-9.5,4.2-14.6,5.3c-5.1,1.1-10.2,1.6-15.5,1.6c-5.6,0-10.8-0.9-15.5-2.6
	c-4.7-1.8-8.8-4.3-12.2-7.5c-3.4-3.3-6.1-7.2-8-11.9s-2.9-9.9-2.9-15.6s1-10.9,2.9-15.6s4.6-8.6,8-11.9s7.5-5.8,12.2-7.5
	c4.7-1.8,9.9-2.6,15.5-2.6c5.7,0,11,0.7,15.8,2.1c4.8,1.4,9.1,3.8,12.7,7.1l-11.1,12.1c-2.2-2.2-4.6-3.9-7.3-5.1
	c-2.7-1.1-6.1-1.7-10.1-1.7c-3.4,0-6.4,0.6-9.2,1.7c-2.7,1.1-5.1,2.8-7,4.8c-2,2.1-3.5,4.5-4.5,7.3s-1.6,5.9-1.6,9.2
	c0,3.4,0.5,6.5,1.6,9.3c1,2.8,2.5,5.2,4.5,7.3s4.3,3.7,7,4.8s5.8,1.7,9.2,1.7c3.4,0,6.4-0.4,8.9-1.2s4.5-1.6,6-2.4V46.9h-12.9V32.3
	h28L526.5,69.8L526.5,69.8z"/>
<path class="st0" d="M533.6,39c0-5.7,1-10.9,2.9-15.6s4.6-8.6,8-11.9S552,5.7,556.7,4c4.7-1.8,9.9-2.6,15.5-2.6S583,2.3,587.7,4
	c4.7,1.8,8.8,4.3,12.2,7.5c3.4,3.3,6.1,7.2,8,11.9C610,28,611,33.2,611,39c0,5.7-1,10.9-2.9,15.6s-4.6,8.6-8,11.9s-7.5,5.8-12.2,7.5
	c-4.7,1.8-9.9,2.6-15.5,2.6s-10.8-0.9-15.5-2.6c-4.7-1.8-8.8-4.3-12.2-7.5c-3.4-3.3-6.1-7.2-8-11.9C534.6,49.9,533.6,44.7,533.6,39z
	 M550,39c0,3.4,0.5,6.5,1.6,9.3c1,2.8,2.5,5.2,4.5,7.3s4.3,3.7,7,4.8s5.8,1.7,9.2,1.7s6.4-0.6,9.2-1.7c2.7-1.1,5.1-2.7,7-4.8
	c2-2.1,3.5-4.5,4.5-7.3s1.6-5.9,1.6-9.3c0-3.3-0.5-6.4-1.6-9.2c-1-2.8-2.5-5.3-4.5-7.3c-2-2.1-4.3-3.7-7-4.8
	c-2.7-1.1-5.8-1.7-9.2-1.7s-6.4,0.6-9.2,1.7c-2.7,1.1-5.1,2.8-7,4.8c-2,2.1-3.5,4.5-4.5,7.3C550.5,32.6,550,35.7,550,39z"/>
<path class="st0" d="M609.5,3.1h18l17.7,47h0.2l18-47h16.9l-29.6,71.7H638L609.5,3.1z"/>
<path class="st1" d="M315.8,175.8c0,5.8-0.5,11.5-1.5,17s-2.9,10.3-5.8,14.5s-6.9,7.6-12.2,10.2c-5.3,2.6-12.2,3.8-20.8,3.8
	c-10,0-18.4-2.4-25.3-7.1c-6.9-4.8-11.4-12.2-13.4-22.3l25.5-6.2c0.4,3.1,1.8,5.7,4.2,7.9c2.4,2.1,5.2,3.2,8.3,3.2
	c3.2,0,5.7-0.8,7.5-2.4c1.8-1.6,3.1-3.6,3.9-6s1.3-5,1.5-7.8s0.3-5.4,0.3-7.8v-81h27.8L315.8,175.8L315.8,175.8z"/>
<path class="st1" d="M331.6,154.9c0-10.1,1.7-19.3,5.1-27.5s8.1-15.2,14.2-21s13.3-10.2,21.6-13.3c8.3-3.1,17.4-4.6,27.3-4.6
	s19,1.5,27.3,4.6s15.5,7.5,21.6,13.3s10.8,12.8,14.2,21c3.4,8.2,5.1,17.4,5.1,27.5s-1.7,19.3-5.1,27.5s-8.1,15.2-14.2,21
	s-13.3,10.2-21.6,13.3c-8.3,3.1-17.4,4.6-27.3,4.6s-19-1.5-27.3-4.6s-15.5-7.5-21.6-13.3s-10.8-12.8-14.2-21
	S331.6,165.1,331.6,154.9z M360.6,154.9c0,5.9,0.9,11.4,2.8,16.3c1.8,4.9,4.5,9.2,7.9,12.8s7.6,6.5,12.4,8.5s10.2,3,16.1,3
	s11.3-1,16.1-3c4.8-2,8.9-4.8,12.4-8.5c3.4-3.6,6.1-7.9,7.9-12.8c1.8-4.9,2.8-10.4,2.8-16.3c0-5.8-0.9-11.2-2.8-16.2
	c-1.8-5-4.5-9.3-7.9-12.9c-3.5-3.6-7.6-6.5-12.4-8.5s-10.2-3-16.1-3s-11.3,1-16.1,3c-4.8,2-9,4.8-12.4,8.5
	c-3.5,3.6-6.1,7.9-7.9,12.9C361.5,143.7,360.6,149.1,360.6,154.9z"/>
<path class="st1" d="M484.3,91.8h47.1c5.5,0,11,0.4,16.5,1.2c5.5,0.8,10.5,2.3,14.9,4.6c4.4,2.3,8,5.6,10.7,9.7
	c2.7,4.2,4.1,9.7,4.1,16.6c0,7.1-2,13.1-6,17.8s-9.3,8.1-15.8,10.1v0.4c4.2,0.6,7.9,1.8,11.3,3.5c3.4,1.7,6.3,3.9,8.7,6.6
	c2.4,2.7,4.3,5.8,5.6,9.4c1.3,3.6,2,7.4,2,11.4c0,6.7-1.4,12.2-4.3,16.7c-2.9,4.5-6.5,8.1-11.1,10.8c-4.5,2.7-9.6,4.7-15.3,5.9
	s-11.3,1.8-16.9,1.8h-51.7V91.8H484.3z M512.2,142.3h20.2c2.1,0,4.3-0.2,6.3-0.7c2.1-0.5,4-1.2,5.6-2.3c1.7-1.1,3-2.5,4-4.3
	s1.5-3.9,1.5-6.4c0-2.6-0.6-4.8-1.7-6.5c-1.1-1.7-2.6-3.1-4.4-4c-1.8-1-3.8-1.6-6.1-2.1c-2.3-0.4-4.5-0.6-6.6-0.6h-18.9v26.9H512.2z
	 M512.2,194.6h25c2.1,0,4.3-0.2,6.5-0.7s4.2-1.3,6-2.5s3.2-2.7,4.4-4.6c1.1-1.9,1.7-4.2,1.7-7c0-3-0.7-5.4-2.2-7.2s-3.4-3.2-5.6-4.2
	c-2.3-1-4.7-1.6-7.3-2s-5.1-0.5-7.3-0.5h-21.1v28.7H512.2z"/>
<path class="st1" d="M661.1,122.7c-2.3-2.9-5.3-5-9.2-6.3c-3.9-1.4-7.5-2.1-11-2.1c-2,0-4.1,0.2-6.2,0.7c-2.1,0.5-4.2,1.2-6.1,2.2
	c-1.9,1-3.5,2.4-4.6,4c-1.2,1.7-1.8,3.7-1.8,6.1c0,3.8,1.4,6.7,4.3,8.7c2.9,2,6.5,3.7,10.8,5.2c4.3,1.4,9,2.9,14,4.3
	c5,1.4,9.7,3.5,14,6.1s7.9,6.1,10.8,10.5c2.9,4.4,4.3,10.3,4.3,17.7c0,7-1.3,13.1-3.9,18.4c-2.6,5.2-6.2,9.6-10.6,13
	c-4.5,3.5-9.6,6-15.5,7.7s-12.1,2.5-18.6,2.5c-8.2,0-15.8-1.2-22.8-3.7s-13.6-6.5-19.6-12.1l19.8-21.8c2.9,3.8,6.5,6.8,10.8,8.8
	c4.3,2.1,8.8,3.1,13.5,3.1c2.3,0,4.6-0.3,6.9-0.8s4.4-1.3,6.2-2.4c1.8-1.1,3.3-2.4,4.5-4.1c1.1-1.7,1.7-3.6,1.7-5.9
	c0-3.8-1.5-6.8-4.4-9s-6.6-4.1-11-5.6s-9.2-3.1-14.3-4.6s-9.9-3.6-14.3-6.2c-4.4-2.6-8.1-6.1-11-10.3c-2.9-4.3-4.4-9.9-4.4-17
	c0-6.8,1.3-12.7,4-17.8c2.7-5.1,6.2-9.4,10.7-12.8s9.6-6,15.4-7.8c5.8-1.7,11.8-2.6,18-2.6c7.1,0,14,1,20.7,3s12.7,5.4,18,10.2
	L661.1,122.7z"/>
<path class="st0" d="M140.2,80.3c-11.1-2.8-29-1.2-39.4,1.7c14.6,2.1,18.1,3.9,26.4,12.2c-0.5-1.8-0.6-3.7,0-5.6
	c1.5-5.4,7.1-8.6,12.6-7.1c1.5,0.4,2.7,1.1,3.8,2c-0.5-0.3-1-0.5-1.5-0.6c-3.6-1-7.4,1.1-8.4,4.7s1.1,7.4,4.7,8.4
	c3.6,1,7.4-1.1,8.4-4.7c0.2-0.6,0.2-1.3,0.2-1.9c0.3,1.5,0.3,3.1-0.2,4.7c-0.5,1.9-1.6,3.6-3,4.8c9.6-2.4,9.2-8.6,16.8-12
	C150.9,87.1,151.5,83.2,140.2,80.3z M145.6,90.8c-0.5,1.6-2.1,2.6-3.8,2.1c-1.6-0.5-2.6-2.1-2.1-3.8s2.1-2.6,3.8-2.1
	S146.1,89.1,145.6,90.8z"/>
<path class="st0" d="M187.6,0H32.5C14.5,0,0,14.5,0,32.5v24.7c26.9,0.9,91.7,3.1,98.9,3.4c17.9,0.9,35.9,2.6,52.5,10
	c12.4,5.5,15.6,13.6,15.6,13.6s35.7,8.1,47,25.7c3.4,5.2,6.1,10,6.1,20.3V32.5C220.1,14.5,205.5,0,187.6,0z"/>
<polygon class="st0" points="0,147.7 83,129.1 0,139.9 "/>
<polygon class="st0" points="0,163.1 0,171.9 87.3,147.2 "/>
<polygon class="st0" points="0,123.8 78.7,111 0,116.9 "/>
<polygon class="st0" points="0,77.2 71.5,75.1 0,71.5 "/>
<polygon class="st0" points="0,100.3 74.8,93 0,94.1 "/>
<path class="st1" d="M219.5,133.5c-0.3,1.1-0.5,2.2-0.8,3.3c-1.2,4.4-3.4,8.4-6.5,12c-1.3,1.5-2.7,3.2-5,2.6
	c-2.3-0.6-2.7-2.8-2.9-4.8c-0.3-3.1-2.2-5-4.9-5.7c-4.5-1.2-22.1-13.6-199.3,50.8C2.4,207.7,16,220,32.5,220h155.1
	c17.9,0,32.5-14.5,32.5-32.5v-57.3C220,131.3,219.8,132.4,219.5,133.5z"/>
</svg>
